<svg width="128" height="128" viewBox="0 0 128 128" fill="none" xmlns="http://www.w3.org/2000/svg">
  <!-- Background Circle -->
  <circle cx="64" cy="64" r="64" fill="url(#gradient)" />
  
  <!-- Face Recognition Scanner Frame -->
  <rect x="32" y="28" width="64" height="72" rx="8" fill="none" stroke="#ffffff" stroke-width="2.5" opacity="0.8"/>
  
  <!-- Corner Scanner Elements -->
  <path d="M32 36 L32 28 L40 28" stroke="#00ff88" stroke-width="3" stroke-linecap="round"/>
  <path d="M88 28 L96 28 L96 36" stroke="#00ff88" stroke-width="3" stroke-linecap="round"/>
  <path d="M96 92 L96 100 L88 100" stroke="#00ff88" stroke-width="3" stroke-linecap="round"/>
  <path d="M40 100 L32 100 L32 92" stroke="#00ff88" stroke-width="3" stroke-linecap="round"/>
  
  <!-- Face Icon -->
  <circle cx="64" cy="52" r="12" fill="#ffffff" opacity="0.9"/>
  <circle cx="58" cy="48" r="2" fill="#2563eb"/>
  <circle cx="70" cy="48" r="2" fill="#2563eb"/>
  <path d="M58 58 Q64 62 70 58" stroke="#2563eb" stroke-width="1.5" fill="none" stroke-linecap="round"/>
  
  <!-- Check-in Checkmark -->
  <circle cx="84" cy="84" r="12" fill="#00ff88"/>
  <path d="M79 84 L82 87 L89 80" stroke="#ffffff" stroke-width="2.5" stroke-linecap="round" stroke-linejoin="round"/>
  
  <!-- Scanning Lines Animation Effect -->
  <rect x="34" y="45" width="60" height="1" fill="#00ff88" opacity="0.6">
    <animate attributeName="opacity" values="0.6;1;0.6" dur="2s" repeatCount="indefinite"/>
  </rect>
  <rect x="34" y="55" width="60" height="1" fill="#00ff88" opacity="0.4">
    <animate attributeName="opacity" values="0.4;0.8;0.4" dur="2s" begin="0.5s" repeatCount="indefinite"/>
  </rect>
  <rect x="34" y="65" width="60" height="1" fill="#00ff88" opacity="0.3">
    <animate attributeName="opacity" values="0.3;0.7;0.3" dur="2s" begin="1s" repeatCount="indefinite"/>
  </rect>
  
  <!-- Gradient Definition -->
  <defs>
    <linearGradient id="gradient" x1="0%" y1="0%" x2="100%" y2="100%">
      <stop offset="0%" style="stop-color:#2563eb;stop-opacity:1" />
      <stop offset="100%" style="stop-color:#1e40af;stop-opacity:1" />
    </linearGradient>
  </defs>
</svg>